<svg width="518" height="452" viewBox="0 0 518 452" fill="none" xmlns="http://www.w3.org/2000/svg">
<path d="M258.942 0L517.883 448.5H0L258.942 0Z" fill="#F22A2A"/>
<path d="M351.384 0H425.942V290.898C425.942 322.785 418.975 350.831 405.041 375.036C391.242 399.241 371.816 418.156 346.762 431.781C321.709 445.26 292.435 452 258.942 452C225.314 452 195.973 445.26 170.92 431.781C145.867 418.156 126.44 399.241 112.641 375.036C98.8413 350.831 91.9416 322.785 91.9416 290.898V0H166.499V284.158C166.499 302.71 170.25 319.234 177.753 333.728C185.389 348.222 196.107 359.6 209.907 367.861C223.706 375.978 240.051 380.037 258.942 380.037C277.832 380.037 294.177 375.978 307.977 367.861C321.91 359.6 332.628 348.222 340.131 333.728C347.633 319.234 351.384 302.71 351.384 284.158V0Z" fill="black"/>
</svg>
