<svg width="1797" height="452" viewBox="0 0 1797 452" fill="none" xmlns="http://www.w3.org/2000/svg">
<path d="M258.942 0L517.883 448.5H0L258.942 0Z" fill="#F22A2A"/>
<path d="M351.384 0H425.942V290.898C425.942 322.785 418.975 350.831 405.041 375.036C391.242 399.241 371.816 418.156 346.762 431.781C321.709 445.26 292.435 452 258.942 452C225.314 452 195.973 445.26 170.92 431.781C145.867 418.156 126.44 399.241 112.641 375.036C98.8413 350.831 91.9416 322.785 91.9416 290.898V0H166.499V284.158C166.499 302.71 170.25 319.234 177.753 333.728C185.389 348.222 196.107 359.6 209.907 367.861C223.706 375.978 240.051 380.037 258.942 380.037C277.832 380.037 294.177 375.978 307.977 367.861C321.91 359.6 332.628 348.222 340.131 333.728C347.633 319.234 351.384 302.71 351.384 284.158V0Z" fill="black"/>
<path d="M604.062 452L466 0H553.857L666.817 371.644L781.659 0H869.516L731.455 452H604.062Z" fill="black"/>
<path d="M923.059 452V0H1008.41V452H923.059Z" fill="black"/>
<path d="M1102.48 452V0H1283.21C1315.43 0 1341.47 6.48704 1361.34 19.4611C1381.21 32.2259 1395.75 48.3389 1404.96 67.8C1414.16 87.2611 1418.76 106.931 1418.76 126.811C1418.76 152.131 1413.01 173.162 1401.5 189.903C1390.21 206.644 1374.62 217.839 1354.75 223.489V207.794C1382.99 213.654 1404.12 226.732 1418.13 247.031C1432.36 267.329 1439.47 290.033 1439.47 315.144C1439.47 342.139 1434.45 365.89 1424.41 386.397C1414.58 406.905 1399.52 423.018 1379.23 434.736C1358.94 446.245 1333.42 452 1302.67 452H1102.48ZM1189.08 371.644H1293.88C1305.38 371.644 1315.63 369.238 1324.63 364.425C1333.62 359.403 1340.63 352.497 1345.65 343.708C1350.88 334.71 1353.5 324.143 1353.5 312.006C1353.5 301.333 1351.3 291.812 1346.91 283.442C1342.51 275.071 1335.82 268.48 1326.83 263.667C1318.04 258.644 1307.06 256.133 1293.88 256.133H1189.08V371.644ZM1189.08 176.406H1281.96C1291.58 176.406 1300.15 174.731 1307.69 171.383C1315.22 168.035 1321.18 162.908 1325.57 156.003C1329.96 148.888 1332.16 139.785 1332.16 128.694C1332.16 114.883 1327.87 103.269 1319.3 93.8528C1310.72 84.4361 1298.27 79.7278 1281.96 79.7278H1189.08V176.406Z" fill="black"/>
<path d="M1502.05 452V0H1797V79.7278H1587.4V176.406H1759.35V256.133H1587.4V372.272H1797V452H1502.05Z" fill="black"/>
</svg>
